<svg id="article" xmlns="http://www.w3.org/2000/svg" width="37" height="37" viewBox="0 0 37 37">
  <path id="Path_25" data-name="Path 25" d="M34.3,169.333H2.7a2.711,2.711,0,0,0-2.7,2.7V191.3A2.711,2.711,0,0,0,2.7,194H34.3a2.711,2.711,0,0,0,2.7-2.7V172.031A2.711,2.711,0,0,0,34.3,169.333ZM31.219,185.52H5.781a1.156,1.156,0,1,1,0-2.312H31.219a1.156,1.156,0,1,1,0,2.312Zm1.156,3.469a1.165,1.165,0,0,1-1.156,1.156H5.781a1.156,1.156,0,0,1,0-2.312H31.219A1.165,1.165,0,0,1,32.375,188.989ZM31.219,180.9H5.781a1.156,1.156,0,0,1,0-2.312H31.219a1.156,1.156,0,0,1,0,2.313Zm0-4.625H5.781a1.156,1.156,0,1,1,0-2.312H31.219a1.156,1.156,0,1,1,0,2.312Z" transform="translate(0 -157)" fill="#88d498"/>
  <path id="Path_26" data-name="Path 26" d="M34.3,0H2.7A2.711,2.711,0,0,0,0,2.7V6.552a2.711,2.711,0,0,0,2.7,2.7H34.3a2.711,2.711,0,0,0,2.7-2.7V2.7A2.711,2.711,0,0,0,34.3,0Z" fill="#88d498"/>
</svg>
