<svg xmlns="http://www.w3.org/2000/svg" width="37" height="40.364" viewBox="0 0 37 40.364">
  <g id="ringing" transform="translate(-1)">
    <g id="Group_74" data-name="Group 74" transform="translate(28.972 1.261)">
      <path id="Path_20" data-name="Path 20" d="M24.978,17.79A1.682,1.682,0,0,1,23.3,16.109,17.547,17.547,0,0,0,18.125,3.621,1.682,1.682,0,0,1,20.5,1.243,20.885,20.885,0,0,1,26.66,16.109a1.682,1.682,0,0,1-1.682,1.682Z" transform="translate(-17.632 -0.75)" fill="#88d498"/>
    </g>
    <g id="Group_75" data-name="Group 75" transform="translate(1 1.261)">
      <path id="Path_21" data-name="Path 21" d="M2.682,17.79A1.682,1.682,0,0,1,1,16.109,20.885,20.885,0,0,1,7.157,1.243,1.682,1.682,0,0,1,9.535,3.621,17.544,17.544,0,0,0,4.364,16.109,1.682,1.682,0,0,1,2.682,17.79Z" transform="translate(-1 -0.75)" fill="#88d498"/>
    </g>
    <g id="Group_76" data-name="Group 76" transform="translate(2.682 0)">
      <path id="Path_22" data-name="Path 22" d="M34.592,28.445a11.265,11.265,0,0,1-4-8.619V15.136A11.782,11.782,0,0,0,20.5,3.5V1.682a1.682,1.682,0,0,0-3.364,0V3.5A11.781,11.781,0,0,0,7.045,15.136v4.689a11.277,11.277,0,0,1-4.016,8.633,2.943,2.943,0,0,0,1.914,5.178h27.75a2.943,2.943,0,0,0,1.9-5.192Z" transform="translate(-2 0)" fill="#88d498"/>
      <path id="Path_23" data-name="Path 23" d="M14.505,26.045A6.317,6.317,0,0,0,20.684,21H8.326A6.317,6.317,0,0,0,14.505,26.045Z" transform="translate(2.313 14.318)" fill="#88d498"/>
    </g>
  </g>
</svg>
