<svg id="shopping-cart" xmlns="http://www.w3.org/2000/svg" width="37.961" height="37.961" viewBox="0 0 37.961 37.961">
  <g id="shopping-cart-2" data-name="shopping-cart">
    <path id="Path_3" data-name="Path 3" d="M11.388,30.369a3.8,3.8,0,1,0,3.8,3.8A3.807,3.807,0,0,0,11.388,30.369ZM0,0V3.8H3.8l6.833,14.425L7.972,22.777a6.744,6.744,0,0,0-.38,1.9,3.807,3.807,0,0,0,3.8,3.8H34.165v-3.8H12.148a.408.408,0,0,1-.38-.38v-.19l1.708-3.227H27.522a3.462,3.462,0,0,0,3.227-1.9L37.582,6.643a1.045,1.045,0,0,0,.38-.949,1.793,1.793,0,0,0-1.9-1.9H7.972L6.264,0ZM30.369,30.369a3.8,3.8,0,1,0,3.8,3.8A3.807,3.807,0,0,0,30.369,30.369Z" fill="#88d498"/>
  </g>
</svg>
